<svg width="197" height="197" viewBox="0 0 197 197" fill="none" xmlns="http://www.w3.org/2000/svg">
<mask id="mask0" mask-type="alpha" maskUnits="userSpaceOnUse" x="0" y="0" width="197" height="197">
<circle cx="98.3539" cy="98.3539" r="69.8465" transform="rotate(39.6899 98.3539 98.3539)" fill="#C4C4C4"/>
</mask>
<g mask="url(#mask0)">
<line y1="-1" x2="195.57" y2="-1" transform="matrix(0.769533 0.638608 -0.638605 0.769535 56.6582 -3.79272)" stroke="#342EAD" stroke-width="2"/>
<line y1="-1" x2="195.57" y2="-1" transform="matrix(0.769533 0.638608 -0.638605 0.769535 63.9043 -12.5237)" stroke="#342EAD" stroke-width="2"/>
<line y1="-1" x2="195.57" y2="-1" transform="matrix(0.769533 0.638608 -0.638605 0.769535 -8.59359 74.8318)" stroke="#342EAD" stroke-width="2"/>
<line x1="-16.0458" y1="83.8113" x2="134.452" y2="208.704" stroke="#342EAD" stroke-width="2"/>
<line y1="-1" x2="195.57" y2="-1" transform="matrix(0.769533 0.638608 -0.638605 0.769535 49.4079 4.94336)" stroke="#342EAD" stroke-width="2"/>
<line y1="-1" x2="195.57" y2="-1" transform="matrix(0.769533 0.638608 -0.638605 0.769535 42.1579 13.6794)" stroke="#342EAD" stroke-width="2"/>
<line y1="-1" x2="195.57" y2="-1" transform="matrix(0.769533 0.638608 -0.638605 0.769535 -1.34331 66.0957)" stroke="#342EAD" stroke-width="2"/>
<line y1="-1" x2="195.57" y2="-1" transform="matrix(0.769533 0.638608 -0.638605 0.769535 34.9076 22.4155)" stroke="#342EAD" stroke-width="2"/>
<line y1="-1" x2="195.57" y2="-1" transform="matrix(0.769533 0.638608 -0.638605 0.769535 13.157 48.6235)" stroke="#342EAD" stroke-width="2"/>
<line y1="-1" x2="195.57" y2="-1" transform="matrix(0.769533 0.638608 -0.638605 0.769535 20.407 39.8877)" stroke="#342EAD" stroke-width="2"/>
<line y1="-1" x2="195.57" y2="-1" transform="matrix(0.769533 0.638608 -0.638605 0.769535 5.90697 57.3596)" stroke="#342EAD" stroke-width="2"/>
<line y1="-1" x2="195.57" y2="-1" transform="matrix(0.769533 0.638608 -0.638605 0.769535 27.6576 31.1514)" stroke="#342EAD" stroke-width="2"/>
</g>
</svg>
