<svg width="2666" height="327" viewBox="0 0 2666 327" fill="none" xmlns="http://www.w3.org/2000/svg">
<path d="M3 118.392C1234.5 -338.5 1455 756.001 2663 118.392" stroke="url(#paint0_linear)" stroke-width="5" stroke-linecap="round" stroke-dasharray="10 10"/>
<g filter="url(#filter0_d)">
<circle cx="156" cy="65" r="50" fill="#342EAD"/>
</g>
<circle cx="156" cy="65" r="45" fill="white"/>
<g filter="url(#filter1_d)">
<circle cx="2477" cy="197" r="50" fill="#342EAD"/>
</g>
<circle cx="2477" cy="197" r="45" fill="white"/>
<path d="M2484.82 201.1C2486.35 201.1 2487.71 200.239 2488.4 198.937L2495.74 185.308C2496.5 183.922 2495.51 182.2 2493.96 182.2H2463.63L2461.7 178H2455V182.2H2459.1L2466.48 198.139L2463.71 203.263C2462.21 206.077 2464.18 209.5 2467.3 209.5H2491.89V205.3H2467.3L2469.55 201.1H2484.82ZM2465.57 186.4H2490.47L2484.82 196.9H2470.43L2465.57 186.4ZM2467.3 211.6C2465.04 211.6 2463.22 213.49 2463.22 215.8C2463.22 218.11 2465.04 220 2467.3 220C2469.55 220 2471.39 218.11 2471.39 215.8C2471.39 213.49 2469.55 211.6 2467.3 211.6ZM2487.79 211.6C2485.53 211.6 2483.71 213.49 2483.71 215.8C2483.71 218.11 2485.53 220 2487.79 220C2490.04 220 2491.89 218.11 2491.89 215.8C2491.89 213.49 2490.04 211.6 2487.79 211.6Z" fill="#342EAD"/>
<path d="M168.613 58.4998L169.913 64.9998H139.753L141.053 58.4998H168.613ZM172.167 47.6665H137.5V51.9998H172.167V47.6665ZM172.167 54.1665H137.5L135.333 64.9998V69.3332H137.5V82.3332H159.167V69.3332H167.833V82.3332H172.167V69.3332H174.333V64.9998L172.167 54.1665ZM141.833 77.9998V69.3332H154.833V77.9998H141.833Z" fill="#342EAD"/>
<defs>
<filter id="filter0_d" x="96" y="9" width="120" height="120" filterUnits="userSpaceOnUse" color-interpolation-filters="sRGB">
<feFlood flood-opacity="0" result="BackgroundImageFix"/>
<feColorMatrix in="SourceAlpha" type="matrix" values="0 0 0 0 0 0 0 0 0 0 0 0 0 0 0 0 0 0 127 0"/>
<feOffset dy="4"/>
<feGaussianBlur stdDeviation="5"/>
<feColorMatrix type="matrix" values="0 0 0 0 0 0 0 0 0 0 0 0 0 0 0 0 0 0 0.15 0"/>
<feBlend mode="normal" in2="BackgroundImageFix" result="effect1_dropShadow"/>
<feBlend mode="normal" in="SourceGraphic" in2="effect1_dropShadow" result="shape"/>
</filter>
<filter id="filter1_d" x="2417" y="141" width="120" height="120" filterUnits="userSpaceOnUse" color-interpolation-filters="sRGB">
<feFlood flood-opacity="0" result="BackgroundImageFix"/>
<feColorMatrix in="SourceAlpha" type="matrix" values="0 0 0 0 0 0 0 0 0 0 0 0 0 0 0 0 0 0 127 0"/>
<feOffset dy="4"/>
<feGaussianBlur stdDeviation="5"/>
<feColorMatrix type="matrix" values="0 0 0 0 0 0 0 0 0 0 0 0 0 0 0 0 0 0 0.15 0"/>
<feBlend mode="normal" in2="BackgroundImageFix" result="effect1_dropShadow"/>
<feBlend mode="normal" in="SourceGraphic" in2="effect1_dropShadow" result="shape"/>
</filter>
<linearGradient id="paint0_linear" x1="1333" y1="3.29834" x2="1333" y2="323.57" gradientUnits="userSpaceOnUse">
<stop stop-color="#342EAD"/>
<stop offset="0.697917" stop-color="#50D890"/>
</linearGradient>
</defs>
</svg>
