<svg width="485" height="485" viewBox="0 0 485 485" fill="none" xmlns="http://www.w3.org/2000/svg">
<mask id="mask0" mask-type="alpha" maskUnits="userSpaceOnUse" x="0" y="0" width="485" height="485">
<circle cx="242.447" cy="242.447" r="172.721" transform="rotate(-38.0073 242.447 242.447)" fill="#C4C4C4"/>
</mask>
<g mask="url(#mask0)">
<line y1="-1.5" x2="483.617" y2="-1.5" transform="matrix(0.787913 -0.615787 0.61579 0.787911 -26.3168 289.364)" stroke="#50D890" stroke-width="3"/>
<line y1="-1.5" x2="483.617" y2="-1.5" transform="matrix(0.787913 -0.615787 0.61579 0.787911 -43.5934 267.257)" stroke="#50D890" stroke-width="3"/>
<line y1="-1.5" x2="483.617" y2="-1.5" transform="matrix(0.787913 -0.615787 0.61579 0.787911 129.264 488.445)" stroke="#50D890" stroke-width="3"/>
<line x1="147.631" y1="511.949" x2="528.679" y2="214.142" stroke="#50D890" stroke-width="3"/>
<line y1="-1.5" x2="483.617" y2="-1.5" transform="matrix(0.787913 -0.615787 0.61579 0.787911 -9.02982 311.485)" stroke="#50D890" stroke-width="3"/>
<line y1="-1.5" x2="483.617" y2="-1.5" transform="matrix(0.787913 -0.615787 0.61579 0.787911 8.25662 333.604)" stroke="#50D890" stroke-width="3"/>
<line y1="-1.5" x2="483.617" y2="-1.5" transform="matrix(0.787913 -0.615787 0.61579 0.787911 111.977 466.325)" stroke="#50D890" stroke-width="3"/>
<line y1="-1.5" x2="483.617" y2="-1.5" transform="matrix(0.787913 -0.615787 0.61579 0.787911 25.5436 355.725)" stroke="#50D890" stroke-width="3"/>
<line y1="-1.5" x2="483.617" y2="-1.5" transform="matrix(0.787913 -0.615787 0.61579 0.787911 77.4035 422.085)" stroke="#50D890" stroke-width="3"/>
<line y1="-1.5" x2="483.617" y2="-1.5" transform="matrix(0.787913 -0.615787 0.61579 0.787911 60.117 399.966)" stroke="#50D890" stroke-width="3"/>
<line y1="-1.5" x2="483.617" y2="-1.5" transform="matrix(0.787913 -0.615787 0.61579 0.787911 94.69 444.205)" stroke="#50D890" stroke-width="3"/>
<line y1="-1.5" x2="483.617" y2="-1.5" transform="matrix(0.787913 -0.615787 0.61579 0.787911 42.8301 377.844)" stroke="#50D890" stroke-width="3"/>
</g>
</svg>
