<svg width="160" height="161" viewBox="0 0 160 161" fill="none" xmlns="http://www.w3.org/2000/svg">
<mask id="mask0" mask-type="alpha" maskUnits="userSpaceOnUse" x="0" y="0" width="160" height="161">
<circle cx="79.8947" cy="80.509" r="56.9175" transform="rotate(-38.0073 79.8947 80.509)" fill="#C4C4C4"/>
</mask>
<g mask="url(#mask0)">
<line y1="-1.5" x2="159.369" y2="-1.5" transform="matrix(0.787913 -0.615787 0.61579 0.787911 -8.6723 95.97)" stroke="#50D890" stroke-width="3"/>
<line y1="-1.5" x2="159.369" y2="-1.5" transform="matrix(0.787913 -0.615787 0.61579 0.787911 -14.3656 88.6848)" stroke="#50D890" stroke-width="3"/>
<line y1="-1.5" x2="159.369" y2="-1.5" transform="matrix(0.787913 -0.615787 0.61579 0.787911 42.597 161.574)" stroke="#50D890" stroke-width="3"/>
<line x1="48.0303" y1="168.527" x2="173.599" y2="70.3893" stroke="#50D890" stroke-width="3"/>
<line y1="-1.5" x2="159.369" y2="-1.5" transform="matrix(0.787913 -0.615787 0.61579 0.787911 -2.97565 103.259)" stroke="#50D890" stroke-width="3"/>
<line y1="-1.5" x2="159.369" y2="-1.5" transform="matrix(0.787913 -0.615787 0.61579 0.787911 2.72086 110.549)" stroke="#50D890" stroke-width="3"/>
<line y1="-1.5" x2="159.369" y2="-1.5" transform="matrix(0.787913 -0.615787 0.61579 0.787911 36.9004 154.285)" stroke="#50D890" stroke-width="3"/>
<line y1="-1.5" x2="159.369" y2="-1.5" transform="matrix(0.787913 -0.615787 0.61579 0.787911 8.41751 117.838)" stroke="#50D890" stroke-width="3"/>
<line y1="-1.5" x2="159.369" y2="-1.5" transform="matrix(0.787913 -0.615787 0.61579 0.787911 25.5072 139.706)" stroke="#50D890" stroke-width="3"/>
<line y1="-1.5" x2="159.369" y2="-1.5" transform="matrix(0.787913 -0.615787 0.61579 0.787911 19.8107 132.417)" stroke="#50D890" stroke-width="3"/>
<line y1="-1.5" x2="159.369" y2="-1.5" transform="matrix(0.787913 -0.615787 0.61579 0.787911 31.2037 146.995)" stroke="#50D890" stroke-width="3"/>
<line y1="-1.5" x2="159.369" y2="-1.5" transform="matrix(0.787913 -0.615787 0.61579 0.787911 14.114 125.127)" stroke="#50D890" stroke-width="3"/>
</g>
</svg>
