<svg width="664" height="664" viewBox="0 0 664 664" fill="none" xmlns="http://www.w3.org/2000/svg">
<circle cx="12.5283" cy="12.5283" r="12.5283" fill="#342EAD"/>
<circle cx="83.522" cy="12.5283" r="12.5283" fill="#342EAD"/>
<circle cx="154.516" cy="12.5283" r="12.5283" fill="#342EAD"/>
<circle cx="225.509" cy="12.5283" r="12.5283" fill="#342EAD"/>
<circle cx="296.503" cy="12.5283" r="12.5283" fill="#342EAD"/>
<circle cx="367.497" cy="12.5283" r="12.5283" fill="#342EAD"/>
<circle cx="438.491" cy="12.5283" r="12.5283" fill="#342EAD"/>
<circle cx="509.484" cy="12.5283" r="12.5283" fill="#342EAD"/>
<circle cx="580.478" cy="12.5283" r="12.5283" fill="#342EAD"/>
<circle cx="651.472" cy="12.5283" r="12.5283" fill="#342EAD"/>
<circle cx="12.5283" cy="83.5222" r="12.5283" fill="#342EAD"/>
<circle cx="83.522" cy="83.5222" r="12.5283" fill="#342EAD"/>
<circle cx="154.516" cy="83.5222" r="12.5283" fill="#342EAD"/>
<circle cx="225.509" cy="83.5222" r="12.5283" fill="#342EAD"/>
<circle cx="296.503" cy="83.5222" r="12.5283" fill="#342EAD"/>
<circle cx="367.497" cy="83.5222" r="12.5283" fill="#342EAD"/>
<circle cx="438.491" cy="83.5222" r="12.5283" fill="#342EAD"/>
<circle cx="509.484" cy="83.5222" r="12.5283" fill="#342EAD"/>
<circle cx="580.478" cy="83.5222" r="12.5283" fill="#342EAD"/>
<circle cx="651.472" cy="83.5222" r="12.5283" fill="#342EAD"/>
<circle cx="12.5283" cy="154.516" r="12.5283" fill="#342EAD"/>
<circle cx="83.522" cy="154.516" r="12.5283" fill="#342EAD"/>
<circle cx="154.516" cy="154.516" r="12.5283" fill="#342EAD"/>
<circle cx="225.509" cy="154.516" r="12.5283" fill="#342EAD"/>
<circle cx="296.503" cy="154.516" r="12.5283" fill="#342EAD"/>
<circle cx="367.497" cy="154.516" r="12.5283" fill="#342EAD"/>
<circle cx="438.491" cy="154.516" r="12.5283" fill="#342EAD"/>
<circle cx="509.484" cy="154.516" r="12.5283" fill="#342EAD"/>
<circle cx="580.478" cy="154.516" r="12.5283" fill="#342EAD"/>
<circle cx="651.472" cy="154.516" r="12.5283" fill="#342EAD"/>
<circle cx="12.5283" cy="225.509" r="12.5283" fill="#342EAD"/>
<circle cx="83.522" cy="225.509" r="12.5283" fill="#342EAD"/>
<circle cx="154.516" cy="225.509" r="12.5283" fill="#342EAD"/>
<circle cx="225.509" cy="225.509" r="12.5283" fill="#342EAD"/>
<circle cx="296.503" cy="225.509" r="12.5283" fill="#342EAD"/>
<circle cx="367.497" cy="225.509" r="12.5283" fill="#342EAD"/>
<circle cx="438.491" cy="225.509" r="12.5283" fill="#342EAD"/>
<circle cx="509.484" cy="225.509" r="12.5283" fill="#342EAD"/>
<circle cx="580.478" cy="225.509" r="12.5283" fill="#342EAD"/>
<circle cx="651.472" cy="225.509" r="12.5283" fill="#342EAD"/>
<circle cx="12.5283" cy="296.503" r="12.5283" fill="#342EAD"/>
<circle cx="83.522" cy="296.503" r="12.5283" fill="#342EAD"/>
<circle cx="154.516" cy="296.503" r="12.5283" fill="#342EAD"/>
<circle cx="225.509" cy="296.503" r="12.5283" fill="#342EAD"/>
<circle cx="296.503" cy="296.503" r="12.5283" fill="#342EAD"/>
<circle cx="367.497" cy="296.503" r="12.5283" fill="#342EAD"/>
<circle cx="438.491" cy="296.503" r="12.5283" fill="#342EAD"/>
<circle cx="509.484" cy="296.503" r="12.5283" fill="#342EAD"/>
<circle cx="580.478" cy="296.503" r="12.5283" fill="#342EAD"/>
<circle cx="651.472" cy="296.503" r="12.5283" fill="#342EAD"/>
<circle cx="12.5283" cy="367.497" r="12.5283" fill="#342EAD"/>
<circle cx="83.522" cy="367.497" r="12.5283" fill="#342EAD"/>
<circle cx="154.516" cy="367.497" r="12.5283" fill="#342EAD"/>
<circle cx="225.509" cy="367.497" r="12.5283" fill="#342EAD"/>
<circle cx="296.503" cy="367.497" r="12.5283" fill="#342EAD"/>
<circle cx="367.497" cy="367.497" r="12.5283" fill="#342EAD"/>
<circle cx="438.491" cy="367.497" r="12.5283" fill="#342EAD"/>
<circle cx="509.484" cy="367.497" r="12.5283" fill="#342EAD"/>
<circle cx="580.478" cy="367.497" r="12.5283" fill="#342EAD"/>
<circle cx="651.472" cy="367.497" r="12.5283" fill="#342EAD"/>
<circle cx="12.5283" cy="438.49" r="12.5283" fill="#342EAD"/>
<circle cx="83.522" cy="438.49" r="12.5283" fill="#342EAD"/>
<circle cx="154.516" cy="438.49" r="12.5283" fill="#342EAD"/>
<circle cx="225.509" cy="438.49" r="12.5283" fill="#342EAD"/>
<circle cx="296.503" cy="438.49" r="12.5283" fill="#342EAD"/>
<circle cx="367.497" cy="438.49" r="12.5283" fill="#342EAD"/>
<circle cx="438.491" cy="438.49" r="12.5283" fill="#342EAD"/>
<circle cx="509.484" cy="438.49" r="12.5283" fill="#342EAD"/>
<circle cx="580.478" cy="438.49" r="12.5283" fill="#342EAD"/>
<circle cx="651.472" cy="438.49" r="12.5283" fill="#342EAD"/>
<circle cx="12.5283" cy="509.484" r="12.5283" fill="#342EAD"/>
<circle cx="83.522" cy="509.484" r="12.5283" fill="#342EAD"/>
<circle cx="154.516" cy="509.484" r="12.5283" fill="#342EAD"/>
<circle cx="225.509" cy="509.484" r="12.5283" fill="#342EAD"/>
<circle cx="296.503" cy="509.484" r="12.5283" fill="#342EAD"/>
<circle cx="367.497" cy="509.484" r="12.5283" fill="#342EAD"/>
<circle cx="438.491" cy="509.484" r="12.5283" fill="#342EAD"/>
<circle cx="509.484" cy="509.484" r="12.5283" fill="#342EAD"/>
<circle cx="580.478" cy="509.484" r="12.5283" fill="#342EAD"/>
<circle cx="651.472" cy="509.484" r="12.5283" fill="#342EAD"/>
<circle cx="12.5283" cy="580.478" r="12.5283" fill="#342EAD"/>
<circle cx="83.522" cy="580.478" r="12.5283" fill="#342EAD"/>
<circle cx="154.516" cy="580.478" r="12.5283" fill="#342EAD"/>
<circle cx="225.509" cy="580.478" r="12.5283" fill="#342EAD"/>
<circle cx="296.503" cy="580.478" r="12.5283" fill="#342EAD"/>
<circle cx="367.497" cy="580.478" r="12.5283" fill="#342EAD"/>
<circle cx="438.491" cy="580.478" r="12.5283" fill="#342EAD"/>
<circle cx="509.484" cy="580.478" r="12.5283" fill="#342EAD"/>
<circle cx="580.478" cy="580.478" r="12.5283" fill="#342EAD"/>
<circle cx="651.472" cy="580.478" r="12.5283" fill="#342EAD"/>
<circle cx="12.5283" cy="651.472" r="12.5283" fill="#342EAD"/>
<circle cx="83.522" cy="651.472" r="12.5283" fill="#342EAD"/>
<circle cx="154.516" cy="651.472" r="12.5283" fill="#342EAD"/>
<circle cx="225.509" cy="651.472" r="12.5283" fill="#342EAD"/>
<circle cx="296.503" cy="651.472" r="12.5283" fill="#342EAD"/>
<circle cx="367.497" cy="651.472" r="12.5283" fill="#342EAD"/>
<circle cx="438.491" cy="651.472" r="12.5283" fill="#342EAD"/>
<circle cx="509.484" cy="651.472" r="12.5283" fill="#342EAD"/>
<circle cx="580.478" cy="651.472" r="12.5283" fill="#342EAD"/>
<circle cx="651.472" cy="651.472" r="12.5283" fill="#342EAD"/>
</svg>
