<svg width="160" height="160" viewBox="0 0 160 160" fill="none" xmlns="http://www.w3.org/2000/svg">
<mask id="mask0" mask-type="alpha" maskUnits="userSpaceOnUse" x="0" y="0" width="160" height="160">
<circle cx="79.8947" cy="79.8947" r="56.9175" transform="rotate(-38.0073 79.8947 79.8947)" fill="#C4C4C4"/>
</mask>
<g mask="url(#mask0)">
<line y1="-0.5" x2="159.369" y2="-0.5" transform="matrix(0.787913 -0.615787 0.61579 0.787911 -8.6723 95.3557)" stroke="#50D890"/>
<line y1="-0.5" x2="159.369" y2="-0.5" transform="matrix(0.787913 -0.615787 0.61579 0.787911 -14.3656 88.0706)" stroke="#50D890"/>
<line y1="-0.5" x2="159.369" y2="-0.5" transform="matrix(0.787913 -0.615787 0.61579 0.787911 42.597 160.96)" stroke="#50D890"/>
<line x1="48.6461" y1="168.7" x2="174.215" y2="70.5627" stroke="#50D890"/>
<line y1="-0.5" x2="159.369" y2="-0.5" transform="matrix(0.787913 -0.615787 0.61579 0.787911 -2.97565 102.645)" stroke="#50D890"/>
<line y1="-0.5" x2="159.369" y2="-0.5" transform="matrix(0.787913 -0.615787 0.61579 0.787911 2.72086 109.934)" stroke="#50D890"/>
<line y1="-0.5" x2="159.369" y2="-0.5" transform="matrix(0.787913 -0.615787 0.61579 0.787911 36.9004 153.67)" stroke="#50D890"/>
<line y1="-0.5" x2="159.369" y2="-0.5" transform="matrix(0.787913 -0.615787 0.61579 0.787911 8.41751 117.224)" stroke="#50D890"/>
<line y1="-0.5" x2="159.369" y2="-0.5" transform="matrix(0.787913 -0.615787 0.61579 0.787911 25.5072 139.092)" stroke="#50D890"/>
<line y1="-0.5" x2="159.369" y2="-0.5" transform="matrix(0.787913 -0.615787 0.61579 0.787911 19.8107 131.803)" stroke="#50D890"/>
<line y1="-0.5" x2="159.369" y2="-0.5" transform="matrix(0.787913 -0.615787 0.61579 0.787911 31.2037 146.381)" stroke="#50D890"/>
<line y1="-0.5" x2="159.369" y2="-0.5" transform="matrix(0.787913 -0.615787 0.61579 0.787911 14.114 124.513)" stroke="#50D890"/>
</g>
</svg>
