<svg width="77" height="77" viewBox="0 0 77 77" fill="none" xmlns="http://www.w3.org/2000/svg">
<path d="M52.6813 38.2917C55.0875 38.2917 57.205 36.9763 58.2958 34.9871L69.7817 14.165C70.9687 12.0475 69.4288 9.41667 66.9904 9.41667H19.5071L16.4913 3H6V9.41667H12.4167L23.9667 33.7679L19.6354 41.5963C17.2933 45.8954 20.3733 51.125 25.25 51.125H63.75V44.7083H25.25L28.7792 38.2917H52.6813ZM22.555 15.8333H61.5363L52.6813 31.875H30.1588L22.555 15.8333ZM25.25 54.3333C21.7208 54.3333 18.8654 57.2208 18.8654 60.75C18.8654 64.2792 21.7208 67.1667 25.25 67.1667C28.7792 67.1667 31.6667 64.2792 31.6667 60.75C31.6667 57.2208 28.7792 54.3333 25.25 54.3333ZM57.3333 54.3333C53.8042 54.3333 50.9488 57.2208 50.9488 60.75C50.9488 64.2792 53.8042 67.1667 57.3333 67.1667C60.8625 67.1667 63.75 64.2792 63.75 60.75C63.75 57.2208 60.8625 54.3333 57.3333 54.3333Z" fill="white"/>
</svg>
