<svg width="2666" height="327" viewBox="0 0 2666 327" fill="none" xmlns="http://www.w3.org/2000/svg">
<path d="M3 118.392C1234.5 -338.5 1455 756.001 2663 118.392" stroke="#1E71FF" stroke-width="5" stroke-linecap="round" stroke-dasharray="10 10"/>
<circle cx="2441" cy="216" r="71" fill="#342EAD"/>
<path d="M2419.86 180.984L2409.45 194.861V243.432C2409.45 245.272 2410.18 247.037 2411.49 248.338C2412.79 249.639 2414.55 250.37 2416.39 250.37H2464.96C2466.8 250.37 2468.57 249.639 2469.87 248.338C2471.17 247.037 2471.9 245.272 2471.9 243.432V194.861L2461.49 180.984H2419.86Z" stroke="#C7FFD8" stroke-width="2.25" stroke-linecap="round" stroke-linejoin="round"/>
<path d="M2409.45 194.861H2471.9" stroke="#C7FFD8" stroke-width="2.25" stroke-linecap="round" stroke-linejoin="round"/>
<path d="M2454.55 208.739C2454.55 212.419 2453.09 215.949 2450.49 218.551C2447.89 221.154 2444.36 222.616 2440.68 222.616C2437 222.616 2433.47 221.154 2430.86 218.551C2428.26 215.949 2426.8 212.419 2426.8 208.739" stroke="#C7FFD8" stroke-width="2.25" stroke-linecap="round" stroke-linejoin="round"/>
<circle cx="163" cy="74" r="71" fill="#342EAD"/>
<path d="M149.93 109.392C151.742 109.392 153.211 107.923 153.211 106.111C153.211 104.299 151.742 102.83 149.93 102.83C148.118 102.83 146.649 104.299 146.649 106.111C146.649 107.923 148.118 109.392 149.93 109.392Z" stroke="#C7FFD8" stroke-width="2.25" stroke-linecap="round" stroke-linejoin="round"/>
<path d="M186.021 109.392C187.833 109.392 189.302 107.923 189.302 106.111C189.302 104.299 187.833 102.83 186.021 102.83C184.209 102.83 182.74 104.299 182.74 106.111C182.74 107.923 184.209 109.392 186.021 109.392Z" stroke="#C7FFD8" stroke-width="2.25" stroke-linecap="round" stroke-linejoin="round"/>
<path d="M123.681 40.4897H136.805L145.599 84.4232C145.899 85.9337 146.72 87.2907 147.92 88.2564C149.12 89.2222 150.621 89.7352 152.161 89.7057H184.053C185.592 89.7352 187.093 89.2222 188.293 88.2564C189.493 87.2907 190.315 85.9337 190.615 84.4232L195.864 56.8951H140.086" stroke="#C7FFD8" stroke-width="2.25" stroke-linecap="round" stroke-linejoin="round"/>
</svg>
